<mxfile host="app.diagrams.net" agent="Mozilla/5.0 (Windows NT 10.0; Win64; x64) AppleWebKit/537.36 (KHTML, like Gecko) Chrome/134.0.0.0 Safari/537.36" version="26.1.1">
  <diagram name="페이지-1" id="y-1440ufJmN-eQ0XaRHQ">
    <mxGraphModel dx="1440" dy="851" grid="1" gridSize="10" guides="1" tooltips="1" connect="1" arrows="1" fold="1" page="1" pageScale="1" pageWidth="827" pageHeight="1169" math="0" shadow="0">
      <root>
        <mxCell id="0" />
        <mxCell id="1" parent="0" />
        <mxCell id="Kpy2hy5LZocjVTZrBFgR-1" value="고객" style="whiteSpace=wrap;html=1;align=center;" vertex="1" parent="1">
          <mxGeometry x="320" y="440" width="100" height="50" as="geometry" />
        </mxCell>
        <mxCell id="Kpy2hy5LZocjVTZrBFgR-2" value="고객" style="ellipse;whiteSpace=wrap;html=1;align=center;" vertex="1" parent="1">
          <mxGeometry x="170" y="340" width="100" height="40" as="geometry" />
        </mxCell>
        <mxCell id="Kpy2hy5LZocjVTZrBFgR-3" value="" style="endArrow=none;html=1;rounded=0;exitX=0.5;exitY=1;exitDx=0;exitDy=0;entryX=0.5;entryY=0;entryDx=0;entryDy=0;" edge="1" parent="1" source="Kpy2hy5LZocjVTZrBFgR-2" target="Kpy2hy5LZocjVTZrBFgR-1">
          <mxGeometry relative="1" as="geometry">
            <mxPoint x="260" y="440" as="sourcePoint" />
            <mxPoint x="420" y="440" as="targetPoint" />
          </mxGeometry>
        </mxCell>
        <mxCell id="Kpy2hy5LZocjVTZrBFgR-4" value="전화번호" style="ellipse;whiteSpace=wrap;html=1;align=center;fontStyle=4;" vertex="1" parent="1">
          <mxGeometry x="300" y="340" width="100" height="40" as="geometry" />
        </mxCell>
        <mxCell id="Kpy2hy5LZocjVTZrBFgR-5" value="" style="endArrow=none;html=1;rounded=0;exitX=0.5;exitY=1;exitDx=0;exitDy=0;entryX=0.5;entryY=0;entryDx=0;entryDy=0;" edge="1" parent="1" source="Kpy2hy5LZocjVTZrBFgR-4" target="Kpy2hy5LZocjVTZrBFgR-1">
          <mxGeometry relative="1" as="geometry">
            <mxPoint x="310" y="360" as="sourcePoint" />
            <mxPoint x="390" y="420" as="targetPoint" />
          </mxGeometry>
        </mxCell>
        <mxCell id="Kpy2hy5LZocjVTZrBFgR-6" value="이메일" style="ellipse;whiteSpace=wrap;html=1;align=center;fontStyle=4;" vertex="1" parent="1">
          <mxGeometry x="430" y="340" width="100" height="40" as="geometry" />
        </mxCell>
        <mxCell id="Kpy2hy5LZocjVTZrBFgR-7" value="" style="endArrow=none;html=1;rounded=0;exitX=0;exitY=0.5;exitDx=0;exitDy=0;entryX=0.5;entryY=0;entryDx=0;entryDy=0;" edge="1" parent="1" source="Kpy2hy5LZocjVTZrBFgR-6" target="Kpy2hy5LZocjVTZrBFgR-1">
          <mxGeometry relative="1" as="geometry">
            <mxPoint x="470" y="360" as="sourcePoint" />
            <mxPoint x="390" y="420" as="targetPoint" />
          </mxGeometry>
        </mxCell>
        <mxCell id="Kpy2hy5LZocjVTZrBFgR-8" value="고객코드" style="ellipse;whiteSpace=wrap;html=1;align=center;fontStyle=4;" vertex="1" parent="1">
          <mxGeometry x="480" y="390" width="100" height="40" as="geometry" />
        </mxCell>
        <mxCell id="Kpy2hy5LZocjVTZrBFgR-9" value="" style="endArrow=none;html=1;rounded=0;exitX=0;exitY=0.5;exitDx=0;exitDy=0;entryX=0.5;entryY=0;entryDx=0;entryDy=0;exitPerimeter=0;" edge="1" parent="1" source="Kpy2hy5LZocjVTZrBFgR-8" target="Kpy2hy5LZocjVTZrBFgR-1">
          <mxGeometry relative="1" as="geometry">
            <mxPoint x="500" y="390" as="sourcePoint" />
            <mxPoint x="390" y="420" as="targetPoint" />
          </mxGeometry>
        </mxCell>
        <mxCell id="Kpy2hy5LZocjVTZrBFgR-10" value="주소" style="ellipse;whiteSpace=wrap;html=1;align=center;" vertex="1" parent="1">
          <mxGeometry x="170" y="440" width="100" height="40" as="geometry" />
        </mxCell>
        <mxCell id="Kpy2hy5LZocjVTZrBFgR-11" value="" style="endArrow=none;html=1;rounded=0;exitX=1;exitY=0.5;exitDx=0;exitDy=0;entryX=0;entryY=0.5;entryDx=0;entryDy=0;" edge="1" parent="1" source="Kpy2hy5LZocjVTZrBFgR-10" target="Kpy2hy5LZocjVTZrBFgR-1">
          <mxGeometry relative="1" as="geometry">
            <mxPoint x="260" y="540" as="sourcePoint" />
            <mxPoint x="370" y="540" as="targetPoint" />
          </mxGeometry>
        </mxCell>
        <mxCell id="Kpy2hy5LZocjVTZrBFgR-12" value="기본주소" style="ellipse;whiteSpace=wrap;html=1;align=center;" vertex="1" parent="1">
          <mxGeometry x="40" y="410" width="100" height="40" as="geometry" />
        </mxCell>
        <mxCell id="Kpy2hy5LZocjVTZrBFgR-13" value="상세주소" style="ellipse;whiteSpace=wrap;html=1;align=center;" vertex="1" parent="1">
          <mxGeometry x="40" y="470" width="100" height="40" as="geometry" />
        </mxCell>
        <mxCell id="Kpy2hy5LZocjVTZrBFgR-14" value="" style="endArrow=none;html=1;rounded=0;exitX=1;exitY=0.5;exitDx=0;exitDy=0;entryX=0;entryY=0.5;entryDx=0;entryDy=0;" edge="1" parent="1" source="Kpy2hy5LZocjVTZrBFgR-12" target="Kpy2hy5LZocjVTZrBFgR-10">
          <mxGeometry relative="1" as="geometry">
            <mxPoint x="280" y="470" as="sourcePoint" />
            <mxPoint x="330" y="475" as="targetPoint" />
          </mxGeometry>
        </mxCell>
        <mxCell id="Kpy2hy5LZocjVTZrBFgR-15" value="" style="endArrow=none;html=1;rounded=0;exitX=1;exitY=0.5;exitDx=0;exitDy=0;entryX=0;entryY=0.5;entryDx=0;entryDy=0;" edge="1" parent="1" source="Kpy2hy5LZocjVTZrBFgR-13" target="Kpy2hy5LZocjVTZrBFgR-10">
          <mxGeometry relative="1" as="geometry">
            <mxPoint x="150" y="440" as="sourcePoint" />
            <mxPoint x="180" y="470" as="targetPoint" />
          </mxGeometry>
        </mxCell>
        <mxCell id="Kpy2hy5LZocjVTZrBFgR-16" value="가입일" style="ellipse;whiteSpace=wrap;html=1;align=center;" vertex="1" parent="1">
          <mxGeometry x="170" y="510" width="100" height="40" as="geometry" />
        </mxCell>
        <mxCell id="Kpy2hy5LZocjVTZrBFgR-17" value="" style="endArrow=none;html=1;rounded=0;exitX=0.5;exitY=0;exitDx=0;exitDy=0;entryX=0;entryY=0.5;entryDx=0;entryDy=0;" edge="1" parent="1" source="Kpy2hy5LZocjVTZrBFgR-16" target="Kpy2hy5LZocjVTZrBFgR-1">
          <mxGeometry relative="1" as="geometry">
            <mxPoint x="280" y="470" as="sourcePoint" />
            <mxPoint x="330" y="475" as="targetPoint" />
          </mxGeometry>
        </mxCell>
        <mxCell id="Kpy2hy5LZocjVTZrBFgR-19" value="" style="endArrow=none;html=1;rounded=0;entryX=0.5;entryY=1;entryDx=0;entryDy=0;exitX=0.5;exitY=0;exitDx=0;exitDy=0;" edge="1" parent="1" source="Kpy2hy5LZocjVTZrBFgR-36" target="Kpy2hy5LZocjVTZrBFgR-1">
          <mxGeometry relative="1" as="geometry">
            <mxPoint x="363.32595052618854" y="530.0442968428688" as="sourcePoint" />
            <mxPoint x="330" y="475" as="targetPoint" />
          </mxGeometry>
        </mxCell>
        <mxCell id="Kpy2hy5LZocjVTZrBFgR-37" value="N" style="edgeLabel;html=1;align=center;verticalAlign=middle;resizable=0;points=[];" vertex="1" connectable="0" parent="Kpy2hy5LZocjVTZrBFgR-19">
          <mxGeometry x="-0.0767" relative="1" as="geometry">
            <mxPoint x="-10" y="20" as="offset" />
          </mxGeometry>
        </mxCell>
        <mxCell id="Kpy2hy5LZocjVTZrBFgR-20" value="지역" style="whiteSpace=wrap;html=1;align=center;" vertex="1" parent="1">
          <mxGeometry x="320" y="780" width="100" height="40" as="geometry" />
        </mxCell>
        <mxCell id="Kpy2hy5LZocjVTZrBFgR-21" value="지역명" style="ellipse;whiteSpace=wrap;html=1;align=center;" vertex="1" parent="1">
          <mxGeometry x="130" y="740" width="100" height="40" as="geometry" />
        </mxCell>
        <mxCell id="Kpy2hy5LZocjVTZrBFgR-22" value="지역코드" style="ellipse;whiteSpace=wrap;html=1;align=center;" vertex="1" parent="1">
          <mxGeometry x="130" y="810" width="100" height="40" as="geometry" />
        </mxCell>
        <mxCell id="Kpy2hy5LZocjVTZrBFgR-23" value="" style="endArrow=none;html=1;rounded=0;exitX=1;exitY=0.5;exitDx=0;exitDy=0;entryX=0;entryY=0.5;entryDx=0;entryDy=0;" edge="1" parent="1" source="Kpy2hy5LZocjVTZrBFgR-21" target="Kpy2hy5LZocjVTZrBFgR-20">
          <mxGeometry relative="1" as="geometry">
            <mxPoint x="230" y="580" as="sourcePoint" />
            <mxPoint x="330" y="535" as="targetPoint" />
          </mxGeometry>
        </mxCell>
        <mxCell id="Kpy2hy5LZocjVTZrBFgR-24" value="" style="endArrow=none;html=1;rounded=0;exitX=1;exitY=0.5;exitDx=0;exitDy=0;entryX=0;entryY=0.5;entryDx=0;entryDy=0;" edge="1" parent="1" source="Kpy2hy5LZocjVTZrBFgR-22" target="Kpy2hy5LZocjVTZrBFgR-20">
          <mxGeometry relative="1" as="geometry">
            <mxPoint x="240" y="770" as="sourcePoint" />
            <mxPoint x="320" y="810" as="targetPoint" />
          </mxGeometry>
        </mxCell>
        <mxCell id="Kpy2hy5LZocjVTZrBFgR-25" value="제품" style="whiteSpace=wrap;html=1;align=center;" vertex="1" parent="1">
          <mxGeometry x="930" y="442.5" width="100" height="40" as="geometry" />
        </mxCell>
        <mxCell id="Kpy2hy5LZocjVTZrBFgR-26" value="제품명" style="ellipse;whiteSpace=wrap;html=1;align=center;" vertex="1" parent="1">
          <mxGeometry x="910" y="327.5" width="100" height="40" as="geometry" />
        </mxCell>
        <mxCell id="Kpy2hy5LZocjVTZrBFgR-27" value="제품코드" style="ellipse;whiteSpace=wrap;html=1;align=center;" vertex="1" parent="1">
          <mxGeometry x="780" y="342.5" width="100" height="40" as="geometry" />
        </mxCell>
        <mxCell id="Kpy2hy5LZocjVTZrBFgR-28" value="" style="endArrow=none;html=1;rounded=0;exitX=0.5;exitY=1;exitDx=0;exitDy=0;entryX=0.5;entryY=0;entryDx=0;entryDy=0;" edge="1" parent="1" source="Kpy2hy5LZocjVTZrBFgR-26" target="Kpy2hy5LZocjVTZrBFgR-25">
          <mxGeometry relative="1" as="geometry">
            <mxPoint x="850" y="242.5" as="sourcePoint" />
            <mxPoint x="950" y="197.5" as="targetPoint" />
          </mxGeometry>
        </mxCell>
        <mxCell id="Kpy2hy5LZocjVTZrBFgR-29" value="" style="endArrow=none;html=1;rounded=0;exitX=1;exitY=0.5;exitDx=0;exitDy=0;entryX=0.5;entryY=0;entryDx=0;entryDy=0;" edge="1" parent="1" source="Kpy2hy5LZocjVTZrBFgR-27" target="Kpy2hy5LZocjVTZrBFgR-25">
          <mxGeometry relative="1" as="geometry">
            <mxPoint x="860" y="432.5" as="sourcePoint" />
            <mxPoint x="940" y="472.5" as="targetPoint" />
          </mxGeometry>
        </mxCell>
        <mxCell id="Kpy2hy5LZocjVTZrBFgR-30" value="제품구분" style="ellipse;whiteSpace=wrap;html=1;align=center;" vertex="1" parent="1">
          <mxGeometry x="1030" y="327.5" width="100" height="40" as="geometry" />
        </mxCell>
        <mxCell id="Kpy2hy5LZocjVTZrBFgR-31" value="" style="endArrow=none;html=1;rounded=0;exitX=0.5;exitY=1;exitDx=0;exitDy=0;entryX=0.5;entryY=0;entryDx=0;entryDy=0;" edge="1" parent="1" source="Kpy2hy5LZocjVTZrBFgR-30" target="Kpy2hy5LZocjVTZrBFgR-25">
          <mxGeometry relative="1" as="geometry">
            <mxPoint x="970" y="377.5" as="sourcePoint" />
            <mxPoint x="990" y="452.5" as="targetPoint" />
          </mxGeometry>
        </mxCell>
        <mxCell id="Kpy2hy5LZocjVTZrBFgR-32" value="제품색상" style="ellipse;shape=doubleEllipse;margin=3;whiteSpace=wrap;html=1;align=center;" vertex="1" parent="1">
          <mxGeometry x="1100" y="402.5" width="100" height="40" as="geometry" />
        </mxCell>
        <mxCell id="Kpy2hy5LZocjVTZrBFgR-33" value="가격" style="ellipse;whiteSpace=wrap;html=1;align=center;" vertex="1" parent="1">
          <mxGeometry x="1110" y="452.5" width="100" height="40" as="geometry" />
        </mxCell>
        <mxCell id="Kpy2hy5LZocjVTZrBFgR-34" value="" style="endArrow=none;html=1;rounded=0;exitX=0;exitY=0.5;exitDx=0;exitDy=0;entryX=1;entryY=0.5;entryDx=0;entryDy=0;" edge="1" parent="1" source="Kpy2hy5LZocjVTZrBFgR-32" target="Kpy2hy5LZocjVTZrBFgR-25">
          <mxGeometry relative="1" as="geometry">
            <mxPoint x="1090" y="377.5" as="sourcePoint" />
            <mxPoint x="990" y="452.5" as="targetPoint" />
          </mxGeometry>
        </mxCell>
        <mxCell id="Kpy2hy5LZocjVTZrBFgR-35" value="" style="endArrow=none;html=1;rounded=0;exitX=0;exitY=0.5;exitDx=0;exitDy=0;entryX=1;entryY=0.5;entryDx=0;entryDy=0;" edge="1" parent="1" source="Kpy2hy5LZocjVTZrBFgR-33" target="Kpy2hy5LZocjVTZrBFgR-25">
          <mxGeometry relative="1" as="geometry">
            <mxPoint x="1110" y="432.5" as="sourcePoint" />
            <mxPoint x="1040" y="472.5" as="targetPoint" />
          </mxGeometry>
        </mxCell>
        <mxCell id="Kpy2hy5LZocjVTZrBFgR-36" value="관리" style="shape=rhombus;perimeter=rhombusPerimeter;whiteSpace=wrap;html=1;align=center;" vertex="1" parent="1">
          <mxGeometry x="310" y="610" width="120" height="60" as="geometry" />
        </mxCell>
        <mxCell id="Kpy2hy5LZocjVTZrBFgR-38" value="" style="endArrow=none;html=1;rounded=0;entryX=0.5;entryY=1;entryDx=0;entryDy=0;exitX=0.5;exitY=0;exitDx=0;exitDy=0;" edge="1" parent="1" source="Kpy2hy5LZocjVTZrBFgR-20" target="Kpy2hy5LZocjVTZrBFgR-36">
          <mxGeometry relative="1" as="geometry">
            <mxPoint x="380" y="620" as="sourcePoint" />
            <mxPoint x="380" y="500" as="targetPoint" />
          </mxGeometry>
        </mxCell>
        <mxCell id="Kpy2hy5LZocjVTZrBFgR-39" value="1" style="edgeLabel;html=1;align=center;verticalAlign=middle;resizable=0;points=[];" vertex="1" connectable="0" parent="Kpy2hy5LZocjVTZrBFgR-38">
          <mxGeometry x="-0.0767" relative="1" as="geometry">
            <mxPoint x="-10" y="-29" as="offset" />
          </mxGeometry>
        </mxCell>
        <mxCell id="Kpy2hy5LZocjVTZrBFgR-40" value="관리" style="shape=rhombus;perimeter=rhombusPerimeter;whiteSpace=wrap;html=1;align=center;" vertex="1" parent="1">
          <mxGeometry x="580" y="440" width="120" height="60" as="geometry" />
        </mxCell>
        <mxCell id="Kpy2hy5LZocjVTZrBFgR-41" value="" style="endArrow=none;html=1;rounded=0;exitX=1;exitY=0.5;exitDx=0;exitDy=0;entryX=0;entryY=0.75;entryDx=0;entryDy=0;" edge="1" parent="1" source="Kpy2hy5LZocjVTZrBFgR-40" target="Kpy2hy5LZocjVTZrBFgR-25">
          <mxGeometry relative="1" as="geometry">
            <mxPoint x="890" y="373" as="sourcePoint" />
            <mxPoint x="990" y="453" as="targetPoint" />
          </mxGeometry>
        </mxCell>
        <mxCell id="Kpy2hy5LZocjVTZrBFgR-50" value="N" style="edgeLabel;html=1;align=center;verticalAlign=middle;resizable=0;points=[];" vertex="1" connectable="0" parent="Kpy2hy5LZocjVTZrBFgR-41">
          <mxGeometry x="0.4037" y="-2" relative="1" as="geometry">
            <mxPoint y="-9" as="offset" />
          </mxGeometry>
        </mxCell>
        <mxCell id="Kpy2hy5LZocjVTZrBFgR-42" value="" style="endArrow=none;html=1;rounded=0;exitX=1;exitY=0.5;exitDx=0;exitDy=0;" edge="1" parent="1" source="Kpy2hy5LZocjVTZrBFgR-1">
          <mxGeometry relative="1" as="geometry">
            <mxPoint x="710" y="480" as="sourcePoint" />
            <mxPoint x="580" y="470" as="targetPoint" />
          </mxGeometry>
        </mxCell>
        <mxCell id="Kpy2hy5LZocjVTZrBFgR-49" value="M" style="edgeLabel;html=1;align=center;verticalAlign=middle;resizable=0;points=[];" vertex="1" connectable="0" parent="Kpy2hy5LZocjVTZrBFgR-42">
          <mxGeometry x="-0.32" relative="1" as="geometry">
            <mxPoint x="56" y="-4" as="offset" />
          </mxGeometry>
        </mxCell>
        <mxCell id="Kpy2hy5LZocjVTZrBFgR-43" value="구매번호" style="ellipse;whiteSpace=wrap;html=1;align=center;fontStyle=4;" vertex="1" parent="1">
          <mxGeometry x="470" y="540" width="100" height="40" as="geometry" />
        </mxCell>
        <mxCell id="Kpy2hy5LZocjVTZrBFgR-44" value="수량" style="ellipse;whiteSpace=wrap;html=1;align=center;" vertex="1" parent="1">
          <mxGeometry x="590" y="540" width="100" height="40" as="geometry" />
        </mxCell>
        <mxCell id="Kpy2hy5LZocjVTZrBFgR-45" value="구매일자" style="ellipse;whiteSpace=wrap;html=1;align=center;" vertex="1" parent="1">
          <mxGeometry x="700" y="540" width="100" height="40" as="geometry" />
        </mxCell>
        <mxCell id="Kpy2hy5LZocjVTZrBFgR-46" value="" style="endArrow=none;html=1;rounded=0;exitX=0.5;exitY=1;exitDx=0;exitDy=0;entryX=0.5;entryY=0;entryDx=0;entryDy=0;" edge="1" parent="1" source="Kpy2hy5LZocjVTZrBFgR-40" target="Kpy2hy5LZocjVTZrBFgR-43">
          <mxGeometry relative="1" as="geometry">
            <mxPoint x="890" y="373" as="sourcePoint" />
            <mxPoint x="990" y="453" as="targetPoint" />
          </mxGeometry>
        </mxCell>
        <mxCell id="Kpy2hy5LZocjVTZrBFgR-47" value="" style="endArrow=none;html=1;rounded=0;entryX=0.5;entryY=0;entryDx=0;entryDy=0;" edge="1" parent="1" target="Kpy2hy5LZocjVTZrBFgR-44">
          <mxGeometry relative="1" as="geometry">
            <mxPoint x="640" y="500" as="sourcePoint" />
            <mxPoint x="530" y="550" as="targetPoint" />
          </mxGeometry>
        </mxCell>
        <mxCell id="Kpy2hy5LZocjVTZrBFgR-48" value="" style="endArrow=none;html=1;rounded=0;entryX=0.5;entryY=0;entryDx=0;entryDy=0;exitX=0.5;exitY=1;exitDx=0;exitDy=0;" edge="1" parent="1" source="Kpy2hy5LZocjVTZrBFgR-40" target="Kpy2hy5LZocjVTZrBFgR-45">
          <mxGeometry relative="1" as="geometry">
            <mxPoint x="650" y="510" as="sourcePoint" />
            <mxPoint x="650" y="550" as="targetPoint" />
          </mxGeometry>
        </mxCell>
      </root>
    </mxGraphModel>
  </diagram>
</mxfile>
